<?xml version="1.0" encoding="UTF-8" standalone="no"?>
<svg
   xmlns:dc="http://purl.org/dc/elements/1.1/"
   xmlns:cc="http://creativecommons.org/ns#"
   xmlns:rdf="http://www.w3.org/1999/02/22-rdf-syntax-ns#"
   xmlns:svg="http://www.w3.org/2000/svg"
   xmlns="http://www.w3.org/2000/svg"
   width="16"
   height="16"
   viewBox="0 0 4.2333332 4.2333335"
   version="1.1"
   id="svg8">
  <defs
     id="defs2" />
  <metadata
     id="metadata5">
    <rdf:RDF>
      <cc:Work
         rdf:about="">
        <dc:format>image/svg+xml</dc:format>
        <dc:type
           rdf:resource="http://purl.org/dc/dcmitype/StillImage" />
        <dc:title></dc:title>
      </cc:Work>
    </rdf:RDF>
  </metadata>
  <g
     id="layer1">
    <g
       aria-label="N"
       transform="scale(1.0054822,0.9945477)"
       id="text12-7"
       style="font-style:normal;font-variant:normal;font-weight:normal;font-stretch:normal;font-size:2.8388px;line-height:1.25;font-family:'Fira Mono';-inkscape-font-specification:'Fira Mono';letter-spacing:0px;word-spacing:0px;fill:#000000;fill-opacity:1;stroke:none;stroke-width:0.236567">
      <path
         d="M 1.9690057,0.06529748 V 2.0835068 H 1.5531658 L 0.74366429,0.75420548 V 2.0835068 H 0.32643832 V 0.06529748 H 0.74366429 L 1.5531658,1.395985 V 0.06529748 Z"
         style="font-style:normal;font-variant:normal;font-weight:bold;font-stretch:normal;font-size:2.8388px;font-family:Roboto;-inkscape-font-specification:'Roboto Bold';stroke-width:0.236567"
         id="path50" />
    </g>
    <g
       aria-label="M"
       transform="scale(1.0054822,0.9945477)"
       id="text12-9"
       style="font-style:normal;font-variant:normal;font-weight:normal;font-stretch:normal;font-size:2.8388px;line-height:1.25;font-family:'Fira Mono';-inkscape-font-specification:'Fira Mono';letter-spacing:0px;word-spacing:0px;fill:#000000;fill-opacity:1;stroke:none;stroke-width:0.236567">
      <path
         d="M 2.105126,3.665138 2.6221535,2.2013818 H 3.1669037 V 4.2195911 H 2.7496777 V 3.6679103 L 2.7912617,2.7197955 2.2478977,4.2195911 H 1.9623543 L 1.4189903,2.7197955 1.4605742,3.6679103 V 4.2195911 H 1.0433483 V 2.2013818 h 0.5447502 z"
         style="font-style:normal;font-variant:normal;font-weight:bold;font-stretch:normal;font-size:2.8388px;font-family:Roboto;-inkscape-font-specification:'Roboto Bold';stroke-width:0.236567"
         id="path56" />
    </g>
    <g
       aria-label="G"
       transform="scale(1.0054822,0.9945477)"
       id="text12-2"
       style="font-style:normal;font-variant:normal;font-weight:normal;font-stretch:normal;font-size:2.8388px;line-height:1.25;font-family:'Fira Mono';-inkscape-font-specification:'Fira Mono';letter-spacing:0px;word-spacing:0px;fill:#000000;fill-opacity:1;stroke:none;stroke-width:0.236567">
      <path
         d="m 3.8835343,1.0231152 v 0.8053432 q -0.072079,0.08594 -0.2564346,0.1843557 -0.1829695,0.098415 -0.5156414,0.098415 -0.3922756,0 -0.6348488,-0.2536623 Q 2.2354224,1.6025187 2.2354224,1.135392 V 1.0147984 q 0,-0.46712671 0.2314842,-0.72217514 0.2314841,-0.25643457 0.6154429,-0.25643457 0.3922756,0 0.5794035,0.18851406 0.187128,0.18851406 0.2203951,0.48237421 H 3.4773974 q -0.023564,-0.1524746 -0.1095045,-0.24395937 -0.08594,-0.0914848 -0.2744543,-0.0914848 -0.4352457,0 -0.4352457,0.64039337 V 1.135392 q 0,0.6403933 0.4754435,0.6403933 0.1497024,0 0.2245535,-0.033267 0.074851,-0.034653 0.1081184,-0.066534 V 1.3280645 H 3.0892802 V 1.0231152 Z"
         style="font-style:normal;font-variant:normal;font-weight:bold;font-stretch:normal;font-size:2.8388px;font-family:Roboto;-inkscape-font-specification:'Roboto Bold';stroke-width:0.236567"
         id="path53" />
    </g>
  </g>
</svg>
